<svg xmlns="http://www.w3.org/2000/svg" viewBox="0 0 717.01 717.01"><defs><style>.cls-1{fill:red;}</style></defs><g id="Capa_2" data-name="Capa 2"><g id="Capa_2-2" data-name="Capa 2"><path d="M358.5,0A355.62,355.62,0,0,0,145.73,69.94c-2.1,1.55-5.32,4.27-7.38,5.86v64.34l-.06.06-.2,184.05L190.37,272l0-173.93A304.73,304.73,0,0,1,355.58,49.62c168.71,0,306,137.26,306,306a304.1,304.1,0,0,1-36,143.9l.1,97.85q9-10,17.21-20.71A356.74,356.74,0,0,0,717,358.5C717,160.82,556.18,0,358.5,0Z"/><path class="cls-1" d="M437,397,364.34,276.53l-37.95,32.35L434.86,485.77l117-156s-2.09,219.73-2.17,262.13a304.54,304.54,0,0,1-194.09,69.62c-168.7,0-306-137.26-306-306,0-6.4.2-12.88.6-19.25A303.57,303.57,0,0,1,88.27,206.66V123.13C32.11,187.84,0,271.56,0,358.5,0,556.18,160.82,717,358.5,717a357,357,0,0,0,235.94-88.82l.72-82.56V269.15H536.67Z"/><path d="M192.25,485.77V414.33l53-60.75L328,485.77h62.6L279.36,314.42,390.61,186.83H332.23L140.35,384l-.09,0v.11l-.69.71.69,1.31v99.68Z"/></g></g></svg>